<svg xmlns="http://www.w3.org/2000/svg" viewBox="0 0 360 360" width="360" height="360">
  <rect x="0"   y="0"   width="60" height="60" fill="rgb(255,255,255)"/>
  <rect x="60"  y="0"   width="60" height="60" fill="rgb(214,214,230)"/>
  <rect x="120" y="0"   width="60" height="60" fill="rgb(172,174,205)"/>
  <rect x="180" y="0"   width="60" height="60" fill="rgb(131,133,180)"/>
  <rect x="240" y="0"   width="60" height="60" fill="rgb(89,93,155)"/>
  <rect x="300" y="0"   width="60" height="60" fill="rgb(48,52,130)"/>

  <rect x="0"   y="60"  width="60" height="60" fill="rgb(246,238,204)"/>
  <rect x="60"  y="60"  width="60" height="60" fill="rgb(205,197,179)"/>
  <rect x="120" y="60"  width="60" height="60" fill="rgb(164,156,154)"/>
  <rect x="180" y="60"  width="60" height="60" fill="rgb(122,116,129)"/>
  <rect x="240" y="60"  width="60" height="60" fill="rgb(81,75,104)"/>
  <rect x="300" y="60"  width="60" height="60" fill="rgb(60,57,87)"/>

  <rect x="0"   y="120" width="60" height="60" fill="rgb(238,220,153)"/>
  <rect x="60"  y="120" width="60" height="60" fill="rgb(196,180,128)"/>
  <rect x="120" y="120" width="60" height="60" fill="rgb(155,139,103)"/>
  <rect x="180" y="120" width="60" height="60" fill="rgb(114,98,78)"/>
  <rect x="240" y="120" width="60" height="60" fill="rgb(82,73,69)"/>
  <rect x="300" y="120" width="60" height="60" fill="rgb(57,51,56)"/>

  <rect x="0"   y="180" width="60" height="60" fill="rgb(229,203,102)"/>
  <rect x="60"  y="180" width="60" height="60" fill="rgb(188,162,77)"/>
  <rect x="120" y="180" width="60" height="60" fill="rgb(146,122,52)"/>
  <rect x="180" y="180" width="60" height="60" fill="rgb(104,88,52)"/>
  <rect x="240" y="180" width="60" height="60" fill="rgb(71,61,45)"/>
  <rect x="300" y="180" width="60" height="60" fill="rgb(53,46,40)"/>

  <rect x="0"   y="240" width="60" height="60" fill="rgb(221,185,51)"/>
  <rect x="60"  y="240" width="60" height="60" fill="rgb(179,145,26)"/>
  <rect x="120" y="240" width="60" height="60" fill="rgb(126,103,35)"/>
  <rect x="180" y="240" width="60" height="60" fill="rgb(85,71,33)"/>
  <rect x="240" y="240" width="60" height="60" fill="rgb(62,53,31)"/>
  <rect x="300" y="240" width="60" height="60" fill="rgb(38,34,22)"/>

  <rect x="0"   y="300" width="60" height="60" fill="rgb(212,168,0)"/>
  <rect x="60"  y="300" width="60" height="60" fill="rgb(148,119,17)"/>
  <rect x="120" y="300" width="60" height="60" fill="rgb(99,81,22)"/>
  <rect x="180" y="300" width="60" height="60" fill="rgb(72,60,24)"/>
  <rect x="240" y="300" width="60" height="60" fill="rgb(45,37,19)"/>
  <rect x="300" y="300" width="60" height="60" fill="rgb(0,0,0)"/>
</svg>
